inDegrees=no
num_controls=7
num_derivatives=13
num_iterations=144
num_multipliers=7
num_parameters=0
num_slacks=7
num_states=26
objective=0.448411
objective_accelerations=0.048781
objective_balance=0.007394
objective_effort=0.036334
objective_height=0.350961
objective_ligament=0.004941
solver_duration=2065.304911
status=Solve_Succeeded
success=true
DataType=double
version=3
OpenSimVersion=4.5
endheader
time	/jointset/ground_pelvis/pelvis_tilt/value	/jointset/ground_pelvis/pelvis_tx/value	/jointset/ground_pelvis/pelvis_ty/value	/jointset/hip_l/hip_flexion_l/value	/jointset/hip_l/hip_adduction_l/value	/jointset/hip_l/hip_rotation_l/value	/jointset/back/lumbar_extension/value	/jointset/patellofemoral_l/patellar_flexion_l/value	/jointset/knee_l/knee_flexion_l/value	/jointset/knee_l/knee_adduction_l/value	/jointset/knee_l/knee_rotation_l/value	/jointset/ankle_l/ankle_angle_l/value	/jointset/subtalar_l/subtalar_angle_l/value	/jointset/ground_pelvis/pelvis_tilt/speed	/jointset/ground_pelvis/pelvis_tx/speed	/jointset/ground_pelvis/pelvis_ty/speed	/jointset/hip_l/hip_flexion_l/speed	/jointset/hip_l/hip_adduction_l/speed	/jointset/hip_l/hip_rotation_l/speed	/jointset/back/lumbar_extension/speed	/jointset/patellofemoral_l/patellar_flexion_l/speed	/jointset/knee_l/knee_flexion_l/speed	/jointset/knee_l/knee_adduction_l/speed	/jointset/knee_l/knee_rotation_l/speed	/jointset/ankle_l/ankle_angle_l/speed	/jointset/subtalar_l/subtalar_angle_l/speed	/forceset/tau_hip_flexion_l	/forceset/tau_hip_adduction_l	/forceset/tau_hip_rotation_l	/forceset/tau_knee_flexion_l	/forceset/tau_ankle_angle_l	/forceset/tau_subtalar_angle_l	/forceset/tau_lumbar_extension	lambda_cid13_p0	lambda_cid13_p1	lambda_cid13_p2	lambda_cid13_p3	lambda_cid13_p4	lambda_cid13_p5	lambda_cid14_p0	/jointset/ground_pelvis/pelvis_tilt/accel	/jointset/ground_pelvis/pelvis_tx/accel	/jointset/ground_pelvis/pelvis_ty/accel	/jointset/hip_l/hip_flexion_l/accel	/jointset/hip_l/hip_adduction_l/accel	/jointset/hip_l/hip_rotation_l/accel	/jointset/back/lumbar_extension/accel	/jointset/patellofemoral_l/patellar_flexion_l/accel	/jointset/knee_l/knee_flexion_l/accel	/jointset/knee_l/knee_adduction_l/accel	/jointset/knee_l/knee_rotation_l/accel	/jointset/ankle_l/ankle_angle_l/accel	/jointset/subtalar_l/subtalar_angle_l/accel	gamma_cid13_p0	gamma_cid13_p1	gamma_cid13_p2	gamma_cid13_p3	gamma_cid13_p4	gamma_cid13_p5	gamma_cid14_p0
1.5	-0.4492008849069786	-0.07409499506465909	0.7631087872733414	1.266406084661532	-0.3099795375338795	-0.04667433804621444	-0.3445163620366945	0.6868753082768233	0.686875308276727	-0.1737272269841673	0.1742603302779076	0.03549273556601337	-0.04959587039468964	0.7358755772126545	0.2625267935467263	0.4869676982169447	-2.335941314688817	0.03276399881231991	-0.6049100254282631	0.5657987063985336	-1.742445175926114	-1.742445175926043	0.004148265220029042	-0.003448776942421405	-0.2350748989522552	0.006932894211692444	-0.2503822035078467	0.01646154452242782	-0.02095194133196185	-0.1998585097238255	0.138924176955319	0.04512682697845396	0.2252160812622274	5.748065986823214	-23.33373900224946	6.434464161321777	-5.332486967951942	-610.0558209186578	-60.96081108944414	-28.42033182525651	0.6267260617185975	0.6713020480409931	-0.2980556007321487	-1.504911209320836	0.5810771810887078	-0.2677550961123022	1.71429622879562	-1.06719874002773	-1.067198740027819	0.02868598878249371	-0.04844439156344367	-0.1272167127587633	0.5611057922571123	2.57579597917324e-07	7.728109993894933e-07	-1.280280851284384e-06	-6.802375684371086e-08	3.485764208299458e-07	-3.119864394748162e-08	2.906512486908908e-07
1.51	-0.4418111180669191	-0.07143637026729874	0.7679626126338599	1.242973644401546	-0.3096239444313852	-0.05273660186935818	-0.3387740557432786	0.6693998896427037	0.6693998896427215	-0.1736862885285051	0.1742249262769353	0.03313581109271656	-0.04949966636415665	0.741979806556886	0.2691686673605275	0.4836987609092342	-2.350224177709988	0.03834640248095872	-0.6074332375375868	0.5825891598424406	-1.752384734646696	-1.752384734646654	0.003991986209466357	-0.003641055648559323	-0.2362598666411489	0.01230058320711581	-0.2424061687859272	0.01573002010739623	-0.02080741172365907	-0.1984444051947125	0.1388520246561583	0.04449281862450999	0.2190308001518494	5.964281938356721	-23.19949008475583	6.530989536932058	-5.287778401657963	-605.5847258815925	-61.25377796980855	-29.41694123734347	0.5875904678109795	0.6562285086646582	-0.3560573457615969	-1.341569195185796	0.5454996189755391	-0.2279737059650724	1.650411035876819	-0.9193018636429335	-0.9193018636472088	-0.04471915269097552	-0.005834859401255638	-0.1066043702596129	0.5233703828432954	1.388253637791826e-07	1.019065616209145e-06	-7.164357104748643e-07	5.358169331594205e-08	2.749249730097903e-07	4.534973703411041e-08	2.303698308215019e-07
1.52	-0.4343632451140084	-0.06871220703967731	0.7727807997113069	1.219408056442014	-0.3092127917603598	-0.05882077170113455	-0.3328660466886856	0.6518326819362704	0.6518326819363914	-0.1736482997242937	0.1741873564390337	0.03076854342786785	-0.04935003145773776	0.7474967997825391	0.2756344795989373	0.4798400416026797	-2.36257085459798	0.04387591251857369	-0.609291227151819	0.5989392586338894	-1.76080299039006	-1.760802990390046	0.003558334930285331	-0.003881944325186917	-0.2371435372622409	0.01761906938887124	-0.2344301340640361	0.01499849569231504	-0.02066288211539168	-0.1970303006656097	0.1387798723569792	0.04385881027051208	0.2128455190414606	6.17313003731046	-23.06624726485572	6.630298245187857	-5.231045072682744	-601.2330888399283	-61.60207227219115	-30.3952655522546	0.5092788380029212	0.636089732962684	-0.4160120005009244	-1.117673982684951	0.5704984548839348	-0.1347105970940049	1.62622529830401	-0.7629381445841316	-0.7629381445841587	-0.02678846494117371	-0.05816638566138346	-0.06695729919844469	0.5512652295235198	7.350116561819286e-08	1.181476947492914e-06	-4.151350221513825e-07	1.220752307688892e-07	2.406667163181261e-07	9.653864624346802e-08	2.004271122266187e-07
1.53	-0.4268632554666151	-0.06592435933569006	0.7775575306656861	1.19572874559338	-0.3087464030804429	-0.06492078376696658	-0.3267970311706215	0.6341888131473084	0.6341888131473176	-0.1736153120072549	0.1741473151353272	0.02839392306427099	-0.04914724159070395	0.7523872095199603	0.281895259768138	0.4754147741590015	-2.372951416748588	0.04941783103466192	-0.6106350299952737	0.6147643175716001	-1.767723347644677	-1.767723347644681	0.003062410245257344	-0.00413516783008195	-0.2377314928916889	0.02295651479566387	-0.2261778442873674	0.01407713367290226	-0.02059175905631326	-0.1959239451961236	0.1390895089776732	0.04304390448418122	0.206398188170393	6.493043985443988	-22.87591682086973	6.722823458012812	-5.190307546072349	-596.9553748544663	-61.89097545665565	-31.35104080631586	0.4618486766489796	0.6151300632603037	-0.4694399172748513	-0.9472438755218168	0.548322302485489	-0.1225787254562707	1.545717080425238	-0.6195123416314756	-0.619512341634162	-0.05730687360396458	-0.01008992810568007	-0.04734426330258365	0.5274666813297769	6.494638068292606e-08	1.254804787894808e-06	-3.927878145943132e-07	1.341373609709621e-07	2.482637252004834e-07	1.207831166948268e-07	2.027192616108974e-07
1.54	-0.4193177763948382	-0.06307509224913846	0.7822872777854337	1.171955829814383	-0.3082241384648623	-0.07103190658074562	-0.3205727508853958	0.6164831552206618	0.6164831552205451	-0.1735865460177326	0.174104503677513	0.02601489723068055	-0.04889058077258767	0.7565946846588721	0.2879183561118119	0.4704432746763791	-2.381291840670116	0.05505109965133378	-0.611513376738133	0.6299922120661343	-1.773160817928533	-1.773160817928555	0.002713989427409307	-0.004435975143059712	-0.2380246312605221	0.02839325960536029	-0.2179255545107345	0.01315577165343478	-0.02052063599728611	-0.1948175897266499	0.1393991455983459	0.0422289986977908	0.1999508572993109	6.804989192693042	-22.68630741816626	6.817881029250286	-5.132394413921455	-592.8033688305834	-62.23636832527782	-32.28005574754416	0.372691918301052	0.5885529678573044	-0.5252584082897197	-0.7096463368689824	0.588768475000658	-0.04161937697491876	1.506792409668686	-0.4663607504319823	-0.4663607504319455	0.002712308494816823	-0.06768314727793506	-0.007993847075525168	0.5711251101042758	5.499932895980366e-08	1.316071639016714e-06	-3.706504641006253e-07	1.454610089718204e-07	2.531539459951574e-07	1.442572545280383e-07	2.032507152046575e-07
